<svg version="1.1" viewBox="0 0 28 28" xmlns="http://www.w3.org/2000/svg">
  <path transform="translate(0,2) scale(0.224 0.24)"
  d="m18.837841 52.823l-8.796875 0l16.78125 -38.0625l6.890625 0l16.875 38.0625l-8.609375 0l-11.734375 -28.359373l-11.40625 28.359373zm41.82634 32.79688l0 -69.671875l26.281254 0q6.9375 0 10.59375 0.671875q5.125 0.84375 8.59375 3.25q3.46875 2.40625 5.578125 6.734375q2.125 4.3125 2.125 9.499998q0 8.890625 -5.65625 15.046875q-5.65625 6.140625 -20.4375 6.140625l-17.859375 0l0 28.328129l-9.218754 0zm9.218754 -36.54688l18.0 0q8.9375 0 12.6875 -3.328125q3.765625 -3.328125 3.765625 -9.359375q0 -4.375 -2.21875 -7.484373q-2.203125 -3.109375 -5.8125 -4.109375q-2.328125 -0.625 -8.609375 -0.625l-17.8125 0l0 24.906248z"
    style="fill: #c5c5c5; stroke-width: 1.6" /></svg>
